<?xml version="1.0" encoding="UTF-8"?>
<svg xmlns="http://www.w3.org/2000/svg" xmlns:xlink="http://www.w3.org/1999/xlink" width="41pt" height="40pt" viewBox="0 0 41 40" version="1.1">
<g id="surface1">
<path style=" stroke:none;fill-rule:nonzero;fill:rgb(0%,0%,0%);fill-opacity:1;" d="M 17.335938 0.519531 C 15.125 1.085938 13.292969 3.199219 12.492188 6.105469 L 12.277344 6.878906 L 11.8125 6.21875 C 10.464844 4.3125 8.542969 3.179688 6.648438 3.167969 C 5.621094 3.167969 5.132812 3.292969 4.203125 3.820312 C 1.671875 5.253906 0.390625 8.574219 0.832031 12.539062 C 1.066406 14.621094 1.59375 16 2.644531 17.273438 C 3.738281 18.59375 5.140625 19.492188 8.015625 20.6875 C 9.777344 21.425781 10.609375 21.839844 11.53125 22.425781 C 13.054688 23.394531 14.703125 24.867188 15.304688 25.8125 C 15.488281 26.085938 15.664062 26.300781 15.695312 26.273438 C 15.734375 26.246094 15.792969 26.085938 15.816406 25.914062 C 15.886719 25.519531 16.335938 24.246094 16.398438 24.246094 C 16.433594 24.246094 16.585938 24.574219 16.738281 24.972656 C 17.28125 26.414062 18.089844 27.652344 20.140625 30.1875 C 21.453125 31.8125 22.285156 33.066406 23.046875 34.554688 C 23.65625 35.746094 24.28125 37.414062 24.425781 38.226562 C 24.480469 38.554688 24.550781 38.859375 24.585938 38.894531 C 24.617188 38.933594 24.886719 38.679688 25.191406 38.320312 C 26.042969 37.332031 27.820312 36.007812 29.539062 35.105469 C 30.308594 34.699219 31.269531 34.300781 33.914062 33.3125 C 36.835938 32.21875 38.339844 31.054688 39.277344 29.167969 C 40.078125 27.554688 40.480469 25.160156 40.28125 23.160156 C 40.078125 21.199219 39.566406 19.90625 38.476562 18.632812 C 37.902344 17.945312 37.621094 17.699219 37.078125 17.378906 C 36.089844 16.800781 35.539062 16.652344 34.394531 16.660156 C 33.289062 16.660156 32.734375 16.8125 31.734375 17.359375 C 30.878906 17.832031 30.445312 18.1875 29.652344 19.085938 L 28.996094 19.832031 L 28.941406 19.554688 C 28.546875 17.460938 27.914062 16.027344 26.875 14.8125 C 26.226562 14.066406 25.601562 13.566406 24.863281 13.234375 C 24.558594 13.09375 24.289062 12.972656 24.273438 12.960938 C 24.253906 12.945312 24.375 12.585938 24.527344 12.152344 C 25.015625 10.800781 25.167969 9.414062 24.984375 8.046875 C 24.761719 6.40625 24.0625 4.453125 23.277344 3.253906 C 22.421875 1.933594 20.988281 0.832031 19.730469 0.519531 C 19.058594 0.347656 17.984375 0.347656 17.335938 0.519531 Z M 18.9375 2.6875 C 20.636719 3.199219 22.046875 4.820312 22.742188 7.074219 C 23.351562 9.027344 23.390625 10.839844 22.847656 12.3125 C 22.773438 12.519531 22.703125 12.699219 22.695312 12.71875 C 22.6875 12.734375 22.414062 12.792969 22.09375 12.839844 C 20.484375 13.105469 19.019531 14.167969 17.9375 15.867188 C 16.886719 17.5 16.097656 20.046875 16.097656 21.746094 C 16.097656 22.007812 15.992188 22.40625 15.785156 22.933594 C 15.617188 23.367188 15.445312 23.867188 15.414062 24.039062 L 15.359375 24.347656 L 15.078125 23.925781 C 14.574219 23.160156 13.15625 21.894531 11.851562 21.066406 C 11.113281 20.59375 10.296875 20.1875 8.570312 19.453125 C 6.238281 18.460938 5.054688 17.6875 4.203125 16.574219 C 2.84375 14.78125 2.371094 11.632812 3.082031 8.992188 C 3.554688 7.207031 4.707031 5.765625 6.109375 5.1875 C 6.816406 4.894531 7.96875 4.832031 8.761719 5.039062 C 9.96875 5.359375 11.242188 6.332031 12.109375 7.59375 L 12.523438 8.21875 L 12.675781 7.574219 C 13.230469 5.160156 14.796875 3.21875 16.625 2.699219 C 17.257812 2.519531 18.355469 2.519531 18.9375 2.6875 Z M 24.574219 15.140625 C 26.507812 15.679688 27.972656 17.585938 28.53125 20.273438 L 28.714844 21.160156 L 28.957031 20.8125 C 29.574219 19.878906 31.0625 18.773438 32.152344 18.445312 C 32.769531 18.253906 33.929688 18.265625 34.585938 18.453125 C 35.921875 18.839844 37.109375 19.972656 37.707031 21.433594 C 38.199219 22.621094 38.300781 23.28125 38.253906 24.90625 C 38.207031 26.453125 38.039062 27.367188 37.621094 28.347656 C 36.835938 30.207031 35.570312 31.265625 32.914062 32.253906 C 30.292969 33.234375 29.652344 33.507812 28.628906 34.105469 C 27.386719 34.820312 26.066406 35.832031 25.480469 36.5 C 25.214844 36.8125 25.046875 36.945312 25.03125 36.867188 C 25.007812 36.800781 24.953125 36.519531 24.90625 36.246094 C 24.777344 35.59375 23.917969 33.566406 23.335938 32.546875 C 22.75 31.519531 22.414062 31.039062 20.957031 29.21875 C 20.308594 28.40625 19.554688 27.386719 19.289062 26.960938 C 18.1875 25.199219 17.730469 23.480469 17.9375 21.8125 C 18.007812 21.207031 18.066406 21.046875 18.371094 20.585938 C 19.019531 19.59375 19.8125 18.605469 21.398438 16.792969 L 22.972656 15 L 23.519531 15 C 23.816406 15 24.296875 15.066406 24.574219 15.140625 Z M 24.574219 15.140625 "/>
</g>
</svg>
